<?xml version="1.0" encoding="UTF-8"?>
<svg version="1.1" viewBox="0 0 288 288" xmlns="http://www.w3.org/2000/svg">
<svg width="288" height="288" enable-background="new 0 0 32 32" viewBox="0 0 32 32" xmlns="http://www.w3.org/2000/svg">
<path class="colorE3F8FA svgShape" d="m26 32h-20c-3.314 0-6-2.686-6-6v-20c0-3.314 2.686-6 6-6h20c3.314 0 6 2.686 6 6v20c0 3.314-2.686 6-6 6z" fill="#fff" fill-opacity="0"/>
<polygon class="color8CE1EB svgShape" points="22.636 17.945 22.638 17.942 22.635 17.945 22.635 17.945" fill="#4ffb12"/>
<path class="color8CE1EB svgShape" d="m20.661 17.818 1e-3 1e-3v1e-3l-2e-3 1e-3c-0.097 0.035-0.177 0.05-0.244 0.08-0.068 0.027-0.124 0.077-0.157 0.141l-1e-3 1e-3c-0.042 0.077-0.077 0.213-0.066 0.444 0.028 0.02 0.061 0.035 0.095 0.046l3e-3 1e-3c0.113 0.035 0.302 0.057 0.512 0.054 0.42-5e-3 0.937-0.104 1.212-0.233 0.236-0.113 0.439-0.249 0.62-0.41-0.917 0.192-1.435 0.141-1.754 8e-3 -0.083-0.036-0.155-0.081-0.219-0.135z" fill="#4ffb12"/>
<polygon class="color8CE1EB svgShape" points="19.72 10.767 19.724 10.773 19.729 10.779" fill="#4ffb12"/>
<path class="color8CE1EB svgShape" d="M16.211 20.866c-.001-.017 0-.034-.001-.051 0-.006-.001-.012-.001-.018L16.211 20.866zM15.508 17.924c-.039-.019-.084-.033-.132-.04h-.002v-.001H15.36c-.035.003-.086.015-.184.125-.229.26-.31.423-.498.576-.189.152-.435.233-.925.335-.155.032-.244.067-.304.096.019.016.017.02.046.035.072.04.164.075.238.095.211.053.557.115.919.053.362-.063.738-.238 1.058-.693.055-.079.061-.195.016-.319C15.68 18.061 15.579 17.954 15.508 17.924zM18.2 9.001l-.038.007c.013-.003.026-.004.039-.007C18.201 9.002 18.2 9.002 18.2 9.001zM20.055 12.6c-.447.006-.698.123-.83.275-.186.217-.204.597-.088 1.065.115.469.354.993.578 1.428.112.218.221.414.308.573.088.16.153.273.192.37.036.089.076.168.117.241.173-.37.204-.733.186-1.112-.023-.469-.13-.948-.115-1.433.018-.567.128-.937.138-1.375C20.396 12.612 20.226 12.6 20.055 12.6zM20.138 12.937l-.001.005c0 .002 0 .004 0 .007 0 .031-.009.06-.024.084l.001-.001c-.02.038-.045.071-.072.1-.065.073-.153.123-.252.141l-.003.001c-.014.002-.03.003-.047.003-.084 0-.161-.027-.225-.072l.001.001c-.033-.023-.061-.049-.085-.078l-.001-.001c-.02-.023-.036-.052-.041-.083v-.001c0-.003-.001-.007-.001-.01 0-.029.011-.055.028-.075.021-.025.047-.045.076-.059l.001-.001c.063-.036.149-.063.246-.077.036-.005.072-.008.105-.009v.002h.033c.043.001.084.006.118.015.036.008.066.02.091.037C20.113 12.881 20.132 12.906 20.138 12.937L20.138 12.937z" fill="#4ffb12"/>
<path class="color26C6DA svgShape" d="m12.718 15.538c0-0.12 9e-3 -0.237 0.026-0.353l-1e-3 0.013c0.068-0.493 0.077-0.953 0.069-1.317-8e-3 -0.355-0.033-0.591-0.033-0.738v-6e-3 -7e-3 -3e-3l-1e-3 -4e-3v-1e-3 -3e-3c0-0.79 0.139-1.546 0.39-2.248 0.184-0.496 0.459-1 0.87-1.407-0.404-0.135-1.122-0.34-1.899-0.379-0.074-4e-3 -0.162-7e-3 -0.25-7e-3h1e-3v1e-3c-0.084 0-0.167 3e-3 -0.25 7e-3 -0.665 0.039-1.294 0.234-1.744 0.717-0.451 0.483-0.747 1.274-0.682 2.584 0.013 0.248 0.119 0.943 0.302 1.768s0.441 1.797 0.752 2.655 0.689 1.605 1.047 1.958c0.18 0.177 0.337 0.248 0.479 0.242 0.143-7e-3 0.315-0.09 0.525-0.345 0.413-0.503 0.803-0.947 1.205-1.379l-0.013 0.014c-0.487-0.431-0.793-1.06-0.793-1.762z" fill="#12c3fb"/>
<path class="color26C6DA svgShape" d="m16.264 9.045v-1e-3c-0.778 2e-3 -1.337 0.24-1.76 0.597-0.437 0.369-0.73 0.873-0.922 1.39-0.228 0.613-0.307 1.207-0.338 1.609l9e-3 -5e-3c0.235-0.133 0.544-0.267 0.875-0.344s0.687-0.101 1.01 0.026 0.589 0.425 0.686 0.877c0.464 2.171-0.144 2.979-0.368 3.588-0.071 0.175-0.146 0.401-0.207 0.631l-0.011 0.045c0.028-7e-3 0.057-0.015 0.085-0.017 0.158-0.013 0.282 0.04 0.356 0.072 0.225 0.095 0.38 0.293 0.464 0.52 0.022 0.059 0.038 0.123 0.047 0.189 9e-3 0.023 0.013 0.049 0.013 0.077v8e-3c-0.011 0.333-0.017 0.725-0.017 1.118 0 0.466 0.01 0.93 0.027 1.392 0.015 0.351 0.037 0.661 0.065 0.906 0.028 0.249 0.068 0.438 0.094 0.502 0.084 0.213 0.207 0.493 0.43 0.683 0.223 0.189 0.542 0.316 1.125 0.189 0.506-0.11 0.818-0.263 1.027-0.482s0.333-0.525 0.412-0.992c0.119-0.7 0.359-2.73 0.388-3.112-0.013-0.288 0.029-0.509 0.12-0.678 0.093-0.173 0.238-0.279 0.364-0.337 0.063-0.029 0.121-0.048 0.169-0.062-0.059-0.085-0.111-0.155-0.166-0.224l6e-3 7e-3c-0.173-0.211-0.32-0.453-0.431-0.713l-7e-3 -0.019c-0.067-0.139-0.124-0.245-0.183-0.348l0.014 0.026c-0.088-0.16-0.198-0.36-0.314-0.585-0.232-0.45-0.484-0.995-0.615-1.527-0.13-0.531-0.15-1.08 0.185-1.467 0.296-0.344 0.817-0.487 1.598-0.407-0.023-0.07-0.037-0.128-0.076-0.221-0.19-0.446-0.419-0.832-0.69-1.182-0.662-0.855-1.732-1.701-3.384-1.728h-0.08z" fill="#12c3fb"/>
<path class="color8CE1EB svgShape" d="m15.748 19.111v0.023-0.023z" fill="#4ffb12"/>
<polygon class="color8CE1EB svgShape" points="13.234 13.18 13.235 13.179 13.237 13.177" fill="#4ffb12"/>
<path class="color8CE1EB svgShape" d="m17.487 8.281c0.011-3e-3 0.023-4e-3 0.034-8e-3l0.013-4e-3 -0.047 0.012z" fill="#4ffb12"/>
<polygon class="color8CE1EB svgShape" points="14.214 12.729 14.221 12.728 14.226 12.726" fill="#4ffb12"/>
<polygon class="color8CE1EB svgShape" points="14.698 12.927 14.697 12.927 14.696 12.927" fill="#4ffb12"/>
<path class="color8CE1EB svgShape" d="M15.04 16.625c.267-.729.794-1.261.35-3.337-.073-.34-.216-.477-.414-.555-.096-.035-.207-.056-.324-.056-.007 0-.015 0-.022 0l.001 0c-.142.001-.279.019-.411.051-.28.071-.527.171-.756.299-.086.047-.16.097-.229.152l-.013.012c.004.097.023.333.031.681.008.38-.001.865-.074 1.389-.157 1.14.66 2.084 1.62 2.085C14.856 17.112 14.948 16.875 15.04 16.625zM14.473 13.312L14.473 13.312c-.031-.032-.057-.068-.077-.107l-.001-.003c-.018-.028-.028-.062-.028-.099 0-.007.001-.013.001-.02v.001c.01-.072.068-.109.126-.13.052-.017.111-.027.174-.027.009 0 .019 0 .029.001l-.001-.003c.035 0 .072.003.109.009.101.014.19.041.259.081.034.019.063.042.087.07l.001.001c.022.026.036.06.036.098 0 .005 0 .011-.001.016v-.001c-.007.04-.024.075-.049.103-.027.033-.058.062-.093.086l-.001.001c-.068.049-.152.079-.244.079-.018 0-.036-.001-.053-.003h.002C14.638 13.445 14.543 13.39 14.473 13.312zM13.451 13.033c.004-.002.009-.004.013-.007.001 0 .002-.001.002-.002L13.451 13.033z" fill="#4ffb12"/>
<path class="color26C6DA svgShape" d="m20.077 10.501c0.288 0.37 0.539 0.791 0.732 1.243l0.014 0.037c0.072 0.176 0.121 0.325 0.149 0.44 0.014 0.058 0.023 0.107 0.026 0.157 1e-3 0.025 3e-3 0.051-8e-3 0.096 0 2e-3 -3e-3 7e-3 -4e-3 9e-3 0.02 0.584-0.123 0.98-0.14 1.537-0.013 0.404 0.089 0.879 0.114 1.397 0.024 0.487-0.034 1.021-0.346 1.546 0.026 0.032 0.05 0.064 0.075 0.096 0.826-1.317 1.421-2.773 1.739-4.015 0.17-0.669 0.26-1.275 0.268-1.755 7e-3 -0.48-0.082-0.828-0.194-0.973-0.884-1.144-2.08-1.435-3.082-1.443v1e-3h-0.096c-0.387 6e-3 -0.76 0.051-1.121 0.129 0.818 0.367 1.438 0.933 1.874 1.498z" fill="#12c3fb"/>
<path class="color8CE1EB svgShape" d="m16.374 8.172h-7e-3c-0.776-0.013-1.442 0.177-1.98 0.495-0.53-0.186-1.628-0.507-2.786-0.443-0.806 0.045-1.686 0.293-2.338 0.989-0.65 0.697-0.994 1.775-0.921 3.241 0.02 0.405 0.134 1.065 0.323 1.919 0.189 0.855 0.454 1.855 0.786 2.768 0.331 0.913 0.694 1.733 1.261 2.291 0.283 0.279 0.673 0.514 1.133 0.495 0.323-0.013 0.614-0.157 0.866-0.368 0.123 0.163 0.254 0.235 0.373 0.301 0.15 0.083 0.296 0.14 0.448 0.177 0.272 0.069 0.738 0.161 1.283 0.067 0.186-0.031 0.381-0.093 0.576-0.18 7e-3 0.22 0.016 0.435 0.024 0.653 0.027 0.691 0.044 1.329 0.249 1.888 0.033 0.091 0.123 0.562 0.479 0.977 0.356 0.416 1.052 0.675 1.846 0.503 0.56-0.121 1.272-0.34 1.745-1.021 0.468-0.673 0.678-1.639 0.72-3.206 0.011-0.085 0.023-0.157 0.036-0.224l0.111 0.01h0.013c0.597 0.027 1.245-0.059 1.787-0.313 0.479-0.225 0.842-0.452 1.106-0.855 0.066-0.1 0.138-0.221 0.158-0.429s-0.098-0.533-0.294-0.683c-0.392-0.301-0.638-0.187-0.902-0.131-0.235 0.055-0.507 0.09-0.786 0.097h-5e-3c0.761-1.298 1.307-2.677 1.619-3.897 0.184-0.72 0.288-1.384 0.296-1.965 9e-3 -0.581-0.038-1.095-0.382-1.539-1.074-1.389-2.584-1.773-3.753-1.787-0.036-1e-3 -0.072-1e-3 -0.109-1e-3v-1e-3c-0.636 5e-3 -1.248 0.101-1.828 0.273l-0.028 9e-3c-0.334-0.063-0.723-0.103-1.119-0.11zm1.58 0.425c0.408-0.101 0.877-0.161 1.36-0.167h4e-3l1e-3 -3e-3c1.105-0.011 2.517 0.303 3.531 1.615 0.228 0.295 0.296 0.725 0.288 1.256-9e-3 0.53-0.105 1.165-0.282 1.86-0.344 1.347-0.993 2.917-1.908 4.325 0.03 0.022 0.065 0.041 0.101 0.056l3e-3 1e-3c0.191 0.08 0.626 0.149 1.495-0.032 0.219-0.047 0.379-0.078 0.545 0.05 0.074 0.064 0.121 0.159 0.121 0.265 0 7e-3 0 0.013-1e-3 0.02v-1e-3c-0.01 0.085-0.04 0.16-0.086 0.224-0.168 0.255-0.499 0.497-0.924 0.696-0.376 0.177-0.915 0.27-1.394 0.275-0.24 3e-3 -0.461-0.016-0.649-0.075l-0.012-5e-3c-0.072 0.707-0.239 2.102-0.348 2.739-0.087 0.513-0.239 0.921-0.529 1.227-0.29 0.305-0.7 0.489-1.252 0.609-0.684 0.149-1.182-0.011-1.503-0.285-0.321-0.273-0.468-0.636-0.556-0.858-0.061-0.153-0.092-0.352-0.123-0.617-0.03-0.265-0.053-0.59-0.068-0.956-0.015-0.372-0.022-0.809-0.022-1.249 0-0.145 1e-3 -0.289 2e-3 -0.433-0.275 0.256-0.624 0.436-1.01 0.505l-0.012 2e-3c-0.454 0.078-0.859 1e-3 -1.1-0.06-0.129-0.033-0.241-0.079-0.346-0.136-0.111-0.06-0.216-0.129-0.286-0.263-0.028-0.051-0.045-0.113-0.045-0.179 0-0.026 3e-3 -0.052 8e-3 -0.076 0.024-0.089 0.074-0.165 0.142-0.219l1e-3 -1e-3c0.13-0.107 0.303-0.167 0.563-0.222 0.474-0.099 0.639-0.166 0.74-0.247 0.086-0.069 0.182-0.209 0.354-0.415-1e-3 -6e-3 -1e-3 -0.016-2e-3 -0.025v-2e-3c-0.323-9e-3 -0.623-0.097-0.886-0.244l0.01 5e-3c-0.099 0.105-0.603 0.645-1.218 1.395-0.259 0.313-0.545 0.493-0.846 0.506-0.302 0.013-0.574-0.141-0.806-0.368-0.463-0.455-0.833-1.239-1.155-2.124-0.321-0.885-0.583-1.871-0.769-2.711s-0.296-1.517-0.312-1.844c-0.069-1.388 0.252-2.323 0.802-2.913 0.551-0.59 1.305-0.813 2.041-0.856 1.321-0.077 2.574 0.389 2.828 0.489 0.489-0.336 1.118-0.545 1.905-0.532 0.396 6e-3 0.776 0.059 1.141 0.153l-0.034-7e-3 0.013-6e-3c0.127-0.048 0.29-0.097 0.456-0.137l0.029-5e-3z" fill="#4ffb12"/>
</svg>
</svg>
